<?xml version="1.0" encoding="utf-8"?>
<!-- Generator: Adobe Illustrator 28.2.0, SVG Export Plug-In . SVG Version: 6.00 Build 0)  -->
<svg version="1.1" id="Capa_1" xmlns="http://www.w3.org/2000/svg" xmlns:xlink="http://www.w3.org/1999/xlink" x="0px" y="0px"
	 viewBox="0 0 20 20" style="enable-background:new 0 0 20 20;" xml:space="preserve">
<style type="text/css">
	.st0{fill:#58CF00;}
</style>
<path class="st0" d="M15,18.3c-0.7,0-1.3-0.2-1.8-0.7s-0.7-1.1-0.7-1.8c0-0.1,0-0.2,0-0.3s0-0.2,0.1-0.3l-5.9-3.4
	c-0.2,0.2-0.5,0.4-0.8,0.5S5.3,12.5,5,12.5c-0.7,0-1.3-0.2-1.8-0.7S2.5,10.7,2.5,10s0.2-1.3,0.7-1.8C3.7,7.7,4.3,7.5,5,7.5
	c0.3,0,0.6,0.1,0.9,0.2C6.2,7.8,6.5,8,6.7,8.2l5.9-3.4c0-0.1,0-0.2-0.1-0.3c0-0.1,0-0.2,0-0.3c0-0.7,0.2-1.3,0.7-1.8
	s1.1-0.7,1.8-0.7s1.3,0.2,1.8,0.7s0.7,1.1,0.7,1.8S17.3,5.5,16.8,6S15.7,6.7,15,6.7c-0.3,0-0.6-0.1-0.9-0.2
	c-0.3-0.1-0.6-0.3-0.8-0.5L7.4,9.4c0,0.1,0,0.2,0.1,0.3c0,0.1,0,0.2,0,0.3s0,0.2,0,0.3s0,0.2-0.1,0.3l5.9,3.4
	c0.2-0.2,0.5-0.4,0.8-0.5s0.6-0.2,0.9-0.2c0.7,0,1.3,0.2,1.8,0.7s0.7,1.1,0.7,1.8s-0.2,1.3-0.7,1.8S15.7,18.3,15,18.3z"/>
</svg>
