<?xml version="1.0" encoding="utf-8"?>
<!-- Generator: Adobe Illustrator 28.2.0, SVG Export Plug-In . SVG Version: 6.00 Build 0)  -->
<svg version="1.1" id="Capa_1" xmlns="http://www.w3.org/2000/svg" xmlns:xlink="http://www.w3.org/1999/xlink" x="0px" y="0px"
	 viewBox="0 0 40 40" style="enable-background:new 0 0 40 40;" xml:space="preserve">
<style type="text/css">
	.st0{fill:#58CF00;}
	.st1{fill:#101010;}
</style>
<circle class="st0" cx="20" cy="20" r="20"/>
<path class="st1" d="M11.4,12.1h13.7v7.4h2.1v-7.4c0-1.2-0.9-2.1-2.1-2.1H11.4c-1.2,0-2.1,0.9-2.1,2.1v12.6c0,1.2,0.9,2.1,2.1,2.1
	h8.4v-2.1h-8.4V12.1z"/>
<path class="st1" d="M15.7,18.4l-3.2,4.2h11.6l-4.2-6.3l-3.2,4.2L15.7,18.4z"/>
<path class="st1" d="M27.2,21.6h-2.1v3.2H22v2.1h3.2V30h2.1v-3.2h3.2v-2.1h-3.2v-3.1H27.2z"/>
</svg>
