<?xml version="1.0" encoding="utf-8"?>
<!-- Generator: Adobe Illustrator 28.2.0, SVG Export Plug-In . SVG Version: 6.00 Build 0)  -->
<svg version="1.1" id="Capa_1" xmlns="http://www.w3.org/2000/svg" xmlns:xlink="http://www.w3.org/1999/xlink" x="0px" y="0px"
	 viewBox="0 0 21 6" style="enable-background:new 0 0 21 6;" xml:space="preserve">
<style type="text/css">
	.st0{fill:#58CF00;}
</style>
<g id="รฐ_x9F__xA6__x86__icon__x22_dots_three_outline_x22_">
	<path id="Vector" class="st0" d="M10.3,0.1c-0.5,0-1.1,0.2-1.5,0.5C8.3,0.9,8,1.3,7.8,1.8s-0.3,1-0.2,1.6c0.1,0.5,0.4,1,0.7,1.4
		c0.4,0.4,0.9,0.6,1.4,0.7s1.1,0.1,1.6-0.2c0.5-0.2,0.9-0.6,1.2-1s0.5-1,0.5-1.5c0-0.7-0.3-1.4-0.8-1.9S11,0.1,10.3,0.1z M10.3,4.5
		c-0.3,0-0.6-0.1-0.9-0.3C9.1,4,8.9,3.7,8.8,3.4C8.7,3.1,8.6,2.8,8.7,2.5c0.1-0.3,0.2-0.6,0.4-0.8S9.7,1.3,10,1.2
		c0.3-0.1,0.6,0,0.9,0.1c0.3,0.1,0.6,0.3,0.7,0.6s0.3,0.6,0.3,0.9c0,0.4-0.2,0.8-0.5,1.2C11.1,4.3,10.7,4.5,10.3,4.5z M3,0.1
		c-0.5,0-1,0.2-1.5,0.5c-0.4,0.3-0.8,0.7-1,1.2s-0.3,1-0.2,1.6c0.1,0.5,0.4,1,0.7,1.4c0.5,0.3,1,0.6,1.5,0.7s1.1,0,1.6-0.2
		s0.9-0.6,1.2-1s0.5-1,0.5-1.5c0-0.7-0.3-1.4-0.8-1.9C4.4,0.4,3.7,0.1,3,0.1z M3,4.5c-0.3,0-0.6-0.1-0.9-0.3C1.8,4,1.6,3.7,1.5,3.4
		S1.4,2.8,1.4,2.5c0.1-0.3,0.2-0.6,0.4-0.8s0.5-0.4,0.8-0.4c0.3-0.1,0.6,0,0.9,0.1S4.1,1.7,4.2,2c0.2,0.3,0.3,0.6,0.3,0.9
		c0,0.4-0.2,0.8-0.5,1.2C3.9,4.3,3.5,4.5,3,4.5z M17.6,0.1c-0.5,0-1.1,0.2-1.5,0.5s-0.8,0.7-1,1.2s-0.3,1-0.2,1.6s0.4,1,0.7,1.4
		C16,5.1,16.5,5.4,17,5.5s1.1,0.1,1.6-0.2c0.5-0.2,0.9-0.6,1.2-1c0.3-0.4,0.5-1,0.5-1.5c0-0.7-0.3-1.4-0.8-1.9
		C19,0.4,18.3,0.1,17.6,0.1z M17.6,4.5c-0.3,0-0.6-0.1-0.9-0.3c-0.3-0.2-0.5-0.4-0.6-0.7S15.9,2.9,16,2.6c0.1-0.3,0.2-0.6,0.4-0.8
		c0.2-0.2,0.5-0.4,0.8-0.4c0.3-0.1,0.6,0,0.9,0.1s0.6,0.3,0.7,0.6s0.3,0.6,0.3,0.9c0,0.4-0.2,0.8-0.5,1.2C18.4,4.3,18,4.5,17.6,4.5z
		"/>
</g>
</svg>
