<?xml version="1.0" encoding="utf-8"?>
<!-- Generator: Adobe Illustrator 28.2.0, SVG Export Plug-In . SVG Version: 6.00 Build 0)  -->
<svg version="1.1" id="Capa_1" xmlns="http://www.w3.org/2000/svg" xmlns:xlink="http://www.w3.org/1999/xlink" x="0px" y="0px"
	 viewBox="0 0 23 23" style="enable-background:new 0 0 23 23;" xml:space="preserve">
<style type="text/css">
	.st0{fill:none;stroke:#58CF00;stroke-width:1.5;stroke-linecap:round;stroke-linejoin:round;}
</style>
<g id="รฐ_x9F__xA6__x86__icon__x22_edit_x22_">
	<path id="Vector" class="st0" d="M10.3,3.4h-7C2.9,3.4,2.4,3.6,2,4S1.4,4.9,1.4,5.4v13.9c0,0.5,0.2,1,0.6,1.4s0.9,0.6,1.4,0.6h13.9
		c0.5,0,1-0.2,1.4-0.6s0.6-0.9,0.6-1.4v-7"/>
	<path id="Vector_2" class="st0" d="M17.8,1.9c0.4-0.4,0.9-0.6,1.5-0.6s1.1,0.2,1.5,0.6s0.6,0.9,0.6,1.5s-0.2,1.1-0.6,1.5l-9.4,9.4
		l-4,1l1-4L17.8,1.9z"/>
</g>
</svg>
