<?xml version="1.0" encoding="utf-8"?>
<!-- Generator: Adobe Illustrator 28.2.0, SVG Export Plug-In . SVG Version: 6.00 Build 0)  -->
<svg version="1.1" id="Capa_1" xmlns="http://www.w3.org/2000/svg" xmlns:xlink="http://www.w3.org/1999/xlink" x="0px" y="0px"
	 viewBox="0 0 30 30" style="enable-background:new 0 0 30 30;" xml:space="preserve">
<style type="text/css">
	.st0{fill-rule:evenodd;clip-rule:evenodd;fill:#58CF00;}
</style>
<path class="st0" d="M15,30c8.3,0,15-6.7,15-15S23.3,0,15,0S0,6.7,0,15S6.7,30,15,30z M15,7.5c1.2,0,2.4,0.3,3.4,0.8
	c1.1,0.5,2,1.3,2.7,2.3l0.2,0.3h-2.5h-0.1c-0.8-0.7-1.9-1.2-3-1.4s-2.2,0-3.3,0.5c-1,0.5-1.9,1.2-2.5,2.1S9,14.1,9,15.3
	c0,1.1,0.3,2.2,0.9,3.2c0.6,0.9,1.5,1.7,2.5,2.1c1,0.5,2.2,0.6,3.3,0.4s2.1-0.6,3-1.4h0.1h2.5l-0.2,0.3c-0.7,1-1.6,1.7-2.7,2.3
	C17.3,22.7,16.2,23,15,23c-4.2,0-7.7-3.4-7.7-7.7C7.3,10.9,10.8,7.5,15,7.5z M20.1,11.8l4.2,3.4l-4.2,3.4v-2.5h-6v-1.9h6
	C20.1,14.2,20.1,11.8,20.1,11.8z"/>
</svg>
