<?xml version="1.0" encoding="utf-8"?>
<!-- Generator: Adobe Illustrator 28.2.0, SVG Export Plug-In . SVG Version: 6.00 Build 0)  -->
<svg version="1.1" id="Capa_1" xmlns="http://www.w3.org/2000/svg" xmlns:xlink="http://www.w3.org/1999/xlink" x="0px" y="0px"
	 viewBox="0 0 40 40" style="enable-background:new 0 0 40 40;" xml:space="preserve">
<style type="text/css">
	.st0{fill:url(#SVGID_1_);}
</style>
<linearGradient id="SVGID_1_" gradientUnits="userSpaceOnUse" x1="19.5" y1="1041" x2="19.5" y2="1074" gradientTransform="matrix(1 0 0 1 0 -1038)">
	<stop  offset="0" style="stop-color:#58CF00"/>
	<stop  offset="1" style="stop-color:#386518"/>
</linearGradient>
<path class="st0" d="M19.5,3C28.6,3,36,10.4,36,19.5c0,2.6-0.6,5.1-1.7,7.4c-1.1,2.3-2.8,4.3-4.9,5.8h3.3c0.4,0,0.9,0.2,1.2,0.5
	s0.5,0.7,0.5,1.2c0,0.4-0.2,0.9-0.5,1.2s-0.7,0.5-1.2,0.5H19.5C10.4,36,3,28.6,3,19.5S10.4,3,19.5,3z M19.5,22.8
	c-0.9,0-1.7,0.3-2.3,1c-0.6,0.6-1,1.5-1,2.3s0.3,1.7,1,2.3c0.6,0.6,1.5,1,2.3,1s1.7-0.3,2.3-1c0.6-0.6,1-1.5,1-2.3s-0.3-1.7-1-2.3
	C21.2,23.1,20.4,22.8,19.5,22.8z M12.9,16.2c-0.9,0-1.7,0.3-2.3,1c-0.6,0.6-1,1.5-1,2.3s0.3,1.7,1,2.3c0.6,0.6,1.5,1,2.3,1
	c0.9,0,1.7-0.3,2.3-1c0.6-0.6,1-1.5,1-2.3s-0.3-1.7-1-2.3C14.6,16.5,13.8,16.2,12.9,16.2z M26.1,16.2c-0.9,0-1.7,0.3-2.3,1
	c-0.6,0.6-1,1.5-1,2.3s0.3,1.7,1,2.3c0.6,0.6,1.5,1,2.3,1s1.7-0.3,2.3-1c0.6-0.6,1-1.5,1-2.3s-0.3-1.7-1-2.3
	C27.8,16.5,27,16.2,26.1,16.2z M19.5,9.6c-0.9,0-1.7,0.3-2.3,1c-0.6,0.6-1,1.5-1,2.3c0,0.9,0.3,1.7,1,2.3c0.6,0.6,1.5,1,2.3,1
	s1.7-0.3,2.3-1c0.6-0.6,1-1.5,1-2.3c0-0.9-0.3-1.7-1-2.3C21.2,9.9,20.4,9.6,19.5,9.6z"/>
</svg>
