<?xml version="1.0" encoding="utf-8"?>
<!-- Generator: Adobe Illustrator 28.2.0, SVG Export Plug-In . SVG Version: 6.00 Build 0)  -->
<svg version="1.1" id="Capa_1" xmlns="http://www.w3.org/2000/svg" xmlns:xlink="http://www.w3.org/1999/xlink" x="0px" y="0px"
	 viewBox="0 0 40 40" style="enable-background:new 0 0 40 40;" xml:space="preserve">
<style type="text/css">
	.st0{fill:url(#SVGID_1_);}
</style>
<linearGradient id="SVGID_1_" gradientUnits="userSpaceOnUse" x1="19.85" y1="1043" x2="19.85" y2="1073" gradientTransform="matrix(1 0 0 1 0 -1038)">
	<stop  offset="0" style="stop-color:#58CF00"/>
	<stop  offset="1" style="stop-color:#4E8722"/>
</linearGradient>
<path class="st0" d="M35.7,5v20.8c0,1.5-0.6,3-1.7,4.1c-1.1,1.1-2.6,1.7-4.1,1.7s-3-0.6-4.1-1.7s-1.7-2.6-1.7-4.1s0.6-3,1.7-4.1
	s2.6-1.7,4.1-1.7c0.9,0,1.8,0.2,2.5,0.6v-9.8l-16.7,3.5v14.8c0,1.5-0.6,3-1.7,4.1s-2.6,1.7-4.1,1.7s-3-0.6-4.1-1.7
	c-1.2-1-1.8-2.5-1.8-4s0.6-3,1.7-4.1s2.6-1.7,4.1-1.7c0.9,0,1.7,0.2,2.5,0.6V10L35.7,5z"/>
</svg>
