<?xml version="1.0" encoding="utf-8"?>
<!-- Generator: Adobe Illustrator 28.2.0, SVG Export Plug-In . SVG Version: 6.00 Build 0)  -->
<svg version="1.1" id="Capa_1" xmlns="http://www.w3.org/2000/svg" xmlns:xlink="http://www.w3.org/1999/xlink" x="0px" y="0px"
	 viewBox="0 0 61 8" style="enable-background:new 0 0 61 8;" xml:space="preserve">
<style type="text/css">
	.st0{fill:#F4F4F4;}
	.st1{fill:#58CF00;}
</style>
<path class="st0" d="M56.1,6.6l2,1.2c0.4,0.2,0.8-0.1,0.7-0.5L58.3,5L60,3.5c0.3-0.3,0.1-0.8-0.3-0.8l-2.3-0.2l-0.9-2.1
	c-0.2-0.4-0.7-0.4-0.9,0l-0.9,2.1l-2.3,0.2c-0.4,0-0.6,0.6-0.3,0.8L53.9,5l-0.5,2.3c-0.1,0.4,0.4,0.7,0.7,0.5L56.1,6.6z"/>
<path class="st1" d="M43.1,6.6l2,1.2c0.4,0.2,0.8-0.1,0.7-0.5L45.3,5L47,3.5c0.3-0.3,0.1-0.8-0.3-0.8l-2.3-0.2l-0.9-2.1
	c-0.2-0.4-0.7-0.4-0.9,0l-0.9,2.1l-2.3,0.2c-0.4,0-0.6,0.6-0.3,0.8L40.9,5l-0.5,2.3c-0.1,0.4,0.4,0.7,0.7,0.5L43.1,6.6z"/>
<path class="st1" d="M30.1,6.6l2,1.2c0.4,0.2,0.8-0.1,0.7-0.5L32.3,5L34,3.5c0.3-0.3,0.1-0.8-0.3-0.8l-2.3-0.2l-0.9-2.1
	c-0.2-0.4-0.7-0.4-0.9,0l-0.9,2.1l-2.3,0.2c-0.4,0-0.6,0.6-0.3,0.8L27.9,5l-0.5,2.3c-0.1,0.4,0.4,0.7,0.7,0.5L30.1,6.6z"/>
<path class="st1" d="M17.1,6.6l2,1.2c0.4,0.2,0.8-0.1,0.7-0.5L19.3,5L21,3.5c0.3-0.3,0.1-0.8-0.3-0.8l-2.3-0.2l-0.9-2.1
	c-0.2-0.4-0.7-0.4-0.9,0l-0.9,2.1l-2.3,0.2c-0.4,0-0.6,0.6-0.3,0.8L14.9,5l-0.5,2.3c-0.1,0.4,0.4,0.7,0.7,0.5L17.1,6.6z"/>
<path class="st1" d="M4.1,6.6l2,1.2C6.5,8,6.9,7.7,6.8,7.3L6.3,5.1L8,3.5c0.3-0.3,0.1-0.8-0.3-0.8L5.5,2.5l-1-2.1
	C4.4,0,3.8,0,3.7,0.4L2.8,2.5L0.4,2.7C0,2.7-0.2,3.3,0.2,3.5L2,5L1.4,7.3C1.3,7.7,1.8,8.1,2.1,7.8L4.1,6.6z"/>
</svg>
