<svg xmlns="http://www.w3.org/2000/svg" width="16" height="16" viewBox="0 0 16 16" fill="none">
  <path d="M6.79512 16C6.58295 16 6.44151 15.9304 6.30006 15.7913L0.430068 10.0174C0.00573106 9.6 -0.135714 9.04348 0.147177 8.48696C0.430068 7.93044 0.854405 7.65217 1.42019 7.65217H3.96621C4.31982 3.33913 7.99741 0 12.4529 0H15.2819C15.6355 0 15.9184 0.278261 15.9891 0.626087C16.0598 0.973913 15.7769 1.32174 15.4233 1.3913H15.2819C12.1701 2.08696 9.97765 4.5913 9.62404 7.65217H12.0993C12.6651 7.65217 13.1602 8 13.3723 8.48696C13.5845 8.97391 13.4431 9.6 13.0895 10.0174L7.21946 15.7913C7.14874 15.9304 6.93657 16 6.79512 16Z" fill="#FFA331"/>
</svg>