<svg width="20" height="15" viewBox="0 0 20 15" fill="none" xmlns="http://www.w3.org/2000/svg">
<path d="M3.77533 14.3854C3.44178 14.3859 3.10964 14.3419 2.78765 14.2544C1.82116 13.9774 1.0012 13.3309 0.503676 12.4534C0.00615274 11.5759 -0.129295 10.5375 0.126391 9.56079L1.72452 3.46805C1.84898 2.97496 2.07024 2.51183 2.3753 2.10586C2.68037 1.6999 3.06308 1.35928 3.50098 1.10401C3.92735 0.855853 4.39848 0.695179 4.88709 0.631292C5.37569 0.567406 5.87206 0.601577 6.34743 0.731828C6.85275 0.872835 7.32341 1.1178 7.72958 1.45119C8.13574 1.78458 8.46854 2.19912 8.70689 2.66855H10.4902C10.7275 2.19837 11.06 1.78322 11.4663 1.4497C11.8726 1.11618 12.3438 0.871667 12.8497 0.731828C13.325 0.601577 13.8214 0.567406 14.31 0.631292C14.7986 0.695179 15.2698 0.855853 15.6961 1.10401C16.1319 1.35862 16.5132 1.69737 16.8181 2.10074C17.123 2.50411 17.3454 2.96412 17.4726 3.45426L19.0707 9.56079C19.3302 10.5403 19.1958 11.5831 18.6966 12.4639C18.1974 13.3447 17.3734 13.9928 16.4026 14.2682C15.9272 14.3984 15.4309 14.4326 14.9423 14.3687C14.4536 14.3048 13.9825 14.1442 13.5561 13.896C13.1197 13.6423 12.7378 13.3038 12.4328 12.9003C12.1278 12.4968 11.9058 12.0363 11.7797 11.5458L11.6562 10.9392H7.54088L7.38312 11.532C7.25702 12.0226 7.035 12.483 6.73 12.8865C6.42501 13.29 6.04315 13.6285 5.60666 13.8822C5.04936 14.2052 4.41865 14.3785 3.77533 14.3854ZM5.3666 1.97932C4.95269 1.98074 4.54622 2.08997 4.18687 2.29637C3.62365 2.62842 3.21426 3.17114 3.04829 3.80577L1.45016 9.89851C1.28293 10.5262 1.36743 11.1948 1.6855 11.7606C2.00357 12.3263 2.52983 12.7441 3.15117 12.9242C3.45125 13.0064 3.76459 13.0281 4.07304 12.9879C4.3815 12.9476 4.67896 12.8464 4.94821 12.6899C5.22853 12.5272 5.47367 12.3099 5.6692 12.0507C5.86473 11.7915 6.00671 11.4956 6.08679 11.1805L6.51204 9.56079H12.6851L13.1035 11.1805C13.1849 11.495 13.3275 11.7903 13.5229 12.0493C13.7183 12.3083 13.9627 12.526 14.242 12.6899C14.5126 12.8462 14.8112 12.9474 15.1208 12.9876C15.4303 13.0278 15.7447 13.0063 16.0459 12.9242C16.668 12.7458 17.1949 12.328 17.5122 11.7614C17.8294 11.1949 17.9113 10.5254 17.7401 9.89851L16.142 3.80577C16.0623 3.49134 15.9213 3.19597 15.727 2.93684C15.5327 2.67771 15.289 2.45999 15.0102 2.29637C14.7397 2.14003 14.4411 2.03886 14.1315 1.99864C13.822 1.95843 13.5076 1.97997 13.2063 2.06203C12.8338 2.16874 12.492 2.36323 12.2092 2.62935C11.9265 2.89546 11.7111 3.22552 11.5808 3.59211L11.4162 4.04699H7.78094L7.61633 3.59211C7.48487 3.22503 7.26821 2.89474 6.98431 2.62864C6.70041 2.36254 6.35746 2.1683 5.9839 2.06203C5.78261 2.00749 5.57508 1.97968 5.3666 1.97932Z" fill="white"/>
<path d="M5.48321 7.49314C5.21189 7.49314 4.94667 7.41229 4.72109 7.26083C4.4955 7.10936 4.31967 6.89408 4.21584 6.6422C4.11202 6.39032 4.08485 6.11316 4.13778 5.84577C4.19071 5.57838 4.32136 5.33276 4.51321 5.13998C4.70506 4.9472 4.94949 4.81592 5.21558 4.76273C5.48168 4.70954 5.7575 4.73684 6.00816 4.84117C6.25883 4.9455 6.47307 5.12218 6.6238 5.34887C6.77454 5.57555 6.85499 5.84206 6.85499 6.11469C6.85499 6.48028 6.71046 6.83089 6.4532 7.0894C6.19594 7.34791 5.84703 7.49314 5.48321 7.49314Z" fill="white"/>
<path d="M13.7139 5.42543C14.0927 5.42543 14.3998 5.11685 14.3998 4.7362C14.3998 4.35555 14.0927 4.04698 13.7139 4.04698C13.3351 4.04698 13.028 4.35555 13.028 4.7362C13.028 5.11685 13.3351 5.42543 13.7139 5.42543Z" fill="white"/>
<path d="M13.7139 8.18232C14.0927 8.18232 14.3998 7.87374 14.3998 7.49309C14.3998 7.11245 14.0927 6.80387 13.7139 6.80387C13.3351 6.80387 13.028 7.11245 13.028 7.49309C13.028 7.87374 13.3351 8.18232 13.7139 8.18232Z" fill="white"/>
<path d="M12.3421 6.8039C12.7209 6.8039 13.028 6.49532 13.028 6.11467C13.028 5.73403 12.7209 5.42545 12.3421 5.42545C11.9633 5.42545 11.6562 5.73403 11.6562 6.11467C11.6562 6.49532 11.9633 6.8039 12.3421 6.8039Z" fill="white"/>
<path d="M15.0857 6.8039C15.4645 6.8039 15.7716 6.49532 15.7716 6.11467C15.7716 5.73403 15.4645 5.42545 15.0857 5.42545C14.7069 5.42545 14.3998 5.73403 14.3998 6.11467C14.3998 6.49532 14.7069 6.8039 15.0857 6.8039Z" fill="white"/>
</svg>
