<svg width="30" height="30" viewBox="0 0 30 30" fill="none" xmlns="http://www.w3.org/2000/svg">
<circle cx="15" cy="14.9999" r="15" fill="#B70A33"/>
<path d="M15 23.9999C19.9707 23.9999 24 19.9706 24 14.9999C24 10.0292 19.9707 5.99991 15 5.99991C10.0293 5.99991 6 10.0292 6 14.9999C6 19.9706 10.0293 23.9999 15 23.9999Z" stroke="white" stroke-width="1.25" stroke-linejoin="round"/>
<path d="M15 12.2999C15.358 12.2999 15.7014 12.1577 15.9546 11.9045C16.2077 11.6513 16.35 11.308 16.35 10.9499C16.35 10.5919 16.2077 10.2485 15.9546 9.99532C15.7014 9.74215 15.358 9.59991 15 9.59991C14.6419 9.59991 14.2986 9.74215 14.0454 9.99532C13.7922 10.2485 13.65 10.5919 13.65 10.9499C13.65 11.308 13.7922 11.6513 14.0454 11.9045C14.2986 12.1577 14.6419 12.2999 15 12.2999ZM15 20.3999C15.358 20.3999 15.7014 20.2577 15.9546 20.0045C16.2077 19.7513 16.35 19.408 16.35 19.0499C16.35 18.6919 16.2077 18.3485 15.9546 18.0953C15.7014 17.8421 15.358 17.6999 15 17.6999C14.6419 17.6999 14.2986 17.8421 14.0454 18.0953C13.7922 18.3485 13.65 18.6919 13.65 19.0499C13.65 19.408 13.7922 19.7513 14.0454 20.0045C14.2986 20.2577 14.6419 20.3999 15 20.3999ZM10.95 16.3499C11.308 16.3499 11.6514 16.2077 11.9046 15.9545C12.1577 15.7013 12.3 15.358 12.3 14.9999C12.3 14.6419 12.1577 14.2985 11.9046 14.0453C11.6514 13.7921 11.308 13.6499 10.95 13.6499C10.5919 13.6499 10.2486 13.7921 9.99538 14.0453C9.74221 14.2985 9.59998 14.6419 9.59998 14.9999C9.59998 15.358 9.74221 15.7013 9.99538 15.9545C10.2486 16.2077 10.5919 16.3499 10.95 16.3499ZM19.05 16.3499C19.408 16.3499 19.7514 16.2077 20.0046 15.9545C20.2577 15.7013 20.4 15.358 20.4 14.9999C20.4 14.6419 20.2577 14.2985 20.0046 14.0453C19.7514 13.7921 19.408 13.6499 19.05 13.6499C18.6919 13.6499 18.3486 13.7921 18.0954 14.0453C17.8422 14.2985 17.7 14.6419 17.7 14.9999C17.7 15.358 17.8422 15.7013 18.0954 15.9545C18.3486 16.2077 18.6919 16.3499 19.05 16.3499Z" stroke="white" stroke-width="1.25" stroke-linejoin="round"/>
<path d="M15 23.9999H24" stroke="white" stroke-width="1.25" stroke-linecap="round"/>
</svg>
