<svg width="981" height="160" viewBox="0 0 981 160" fill="none" xmlns="http://www.w3.org/2000/svg">
<path d="M77.5479 11.5855L66.8925 53.7843L53.3619 57.6743L18.605 2.19861L59.8735 53.7843L77.5479 11.5855Z" fill="#89CAE8"/>
<path d="M165.666 53.9534L128.71 50.8245L129.471 56.9133L154.926 61.3953L143.086 143.087L34.7566 130.994V94.7145L31.1203 95.7293L27.4839 136.913L153.404 157.463L165.666 53.9534Z" fill="#C3C3EB"/>
<path d="M78.7315 148.753L61.3954 146.047L23.9324 151.29L12.2622 69.4292L118.309 52.685L130.233 121.269L133.869 121.776L122.283 44.0592L0 61.3954L17.5899 160L78.7315 148.753Z" fill="#89CAE8"/>
<ellipse cx="21.4797" cy="5.91966" rx="5.91966" ry="5.91966" fill="#89CAE8"/>
<ellipse cx="77.2096" cy="14.1227" rx="3.63636" ry="3.63636" fill="#89CAE8"/>
<path d="M980.513 142.827C980.513 145.842 979.474 148.44 977.395 150.623L972.405 155.613C970.326 157.692 967.78 158.731 964.765 158.731H934.672C931.658 158.731 929.111 157.692 927.032 155.613L921.887 150.467C919.808 148.388 918.768 145.842 918.768 142.827V62.3717C918.768 59.3573 919.808 56.7586 921.887 54.5757L926.876 49.5862C928.955 47.5072 931.502 46.4678 934.516 46.4678H964.765C967.78 46.4678 970.326 47.5592 972.405 49.7421L977.395 54.7316C979.474 56.8106 980.513 59.3573 980.513 62.3717V142.827ZM960.087 144.542C964.245 144.542 966.324 142.463 966.324 138.305V66.8935C966.324 62.7356 964.245 60.6566 960.087 60.6566H939.194C935.036 60.6566 932.957 62.7356 932.957 66.8935V138.305C932.957 142.463 935.036 144.542 939.194 144.542H960.087Z" fill="#C3C3EB"/>
<path d="M895.209 90.1257C891.052 90.1257 888.973 88.0468 888.973 83.8889V67.0493C888.973 62.8915 886.894 60.8125 882.736 60.8125H861.842C857.684 60.8125 855.605 62.8915 855.605 67.0493V138.305C855.605 142.463 857.684 144.542 861.842 144.542H882.736C886.894 144.542 888.973 142.463 888.973 138.305V123.025C888.973 118.867 891.052 116.788 895.209 116.788H896.925C901.082 116.788 903.161 118.867 903.161 123.025V142.827C903.161 145.842 902.122 148.388 900.043 150.467L894.898 155.613C892.819 157.692 890.272 158.731 887.257 158.731H857.321C854.306 158.731 851.759 157.692 849.68 155.613L844.535 150.467C842.456 148.388 841.417 145.842 841.417 142.827V62.5276C841.417 59.5132 842.456 56.9664 844.535 54.8875L849.68 49.7421C851.759 47.6631 854.306 46.6237 857.321 46.6237H887.257C890.272 46.6237 892.819 47.6631 894.898 49.7421L900.043 54.8875C902.122 56.9664 903.161 59.5132 903.161 62.5276V83.8889C903.161 88.0468 901.082 90.1257 896.925 90.1257H895.209Z" fill="#C3C3EB"/>
<path d="M827.436 153.683C827.436 157.841 825.357 159.92 821.199 159.92H817.925C813.767 159.92 811.688 157.841 811.688 153.683V146.667C811.688 142.509 813.767 140.43 817.925 140.43H821.199C825.357 140.43 827.436 142.509 827.436 146.667V153.683Z" fill="#C3C3EB"/>
<path d="M799.266 152.494C799.266 156.652 797.187 158.731 793.029 158.731H786.48C783.05 158.731 780.659 157.12 779.308 153.898L769.329 130.198C768.289 127.599 766.886 126.299 765.119 126.299C763.352 126.299 761.948 127.599 760.909 130.198L751.086 153.898C750.358 155.561 749.423 156.756 748.279 157.484C747.136 158.315 745.681 158.731 743.914 158.731H737.833C733.675 158.731 731.596 156.652 731.596 152.494V150.779C731.596 148.804 731.96 147.297 732.687 146.257C733.519 145.114 734.61 144.542 735.962 144.542C738.768 144.542 740.847 142.931 742.198 139.709L755.919 106.653C756.543 105.094 756.855 103.691 756.855 102.444C756.855 100.988 756.543 99.585 755.919 98.2337L742.198 65.0224C740.847 61.8 738.768 60.1888 735.962 60.1888C733.051 60.1888 731.596 58.1099 731.596 53.952V52.2369C731.596 48.079 733.675 46 737.833 46H743.914C745.681 46 747.136 46.4158 748.279 47.2474C749.423 47.975 750.358 49.1704 751.086 50.8336L760.909 74.6895C762.052 77.2882 763.456 78.5876 765.119 78.5876C766.782 78.5876 768.185 77.2882 769.329 74.6895L779.308 50.8336C780.659 47.6112 783.05 46 786.48 46H793.029C797.187 46 799.266 48.079 799.266 52.2369V53.952C799.266 55.927 798.85 57.4862 798.018 58.6296C797.291 59.6691 796.199 60.1888 794.744 60.1888C791.729 60.1888 789.546 61.8 788.195 65.0224L774.318 98.2337C773.694 99.585 773.383 100.988 773.383 102.444C773.383 103.691 773.694 105.094 774.318 106.653L788.195 139.709C789.546 142.931 791.729 144.542 794.744 144.542C796.199 144.542 797.291 145.114 798.018 146.257C798.85 147.297 799.266 148.804 799.266 150.779V152.494Z" fill="#89CAE8"/>
<path d="M712.83 144.23C716.988 144.23 719.067 146.309 719.067 150.467V152.182C719.067 156.34 716.988 158.419 712.83 158.419H673.226C670.212 158.419 667.665 157.328 665.586 155.145L660.597 150.155C658.518 148.077 657.478 145.53 657.478 142.515V52.7046C657.478 48.5467 659.557 46.4678 663.715 46.4678H712.83C716.988 46.4678 719.067 48.5467 719.067 52.7046V54.4198C719.067 58.5777 716.988 60.6566 712.83 60.6566H677.748C673.59 60.6566 671.511 62.7356 671.511 66.8935V87.7869C671.511 91.9448 673.59 94.0238 677.748 94.0238H712.83C716.988 94.0238 719.067 96.1027 719.067 100.261V101.976C719.067 106.134 716.988 108.213 712.83 108.213H677.748C673.59 108.213 671.511 110.292 671.511 114.449V137.994C671.511 142.152 673.59 144.23 677.748 144.23H712.83Z" fill="#89CAE8"/>
<path d="M637.154 144.542C641.311 144.542 643.39 146.621 643.39 150.779V152.494C643.39 156.652 641.311 158.731 637.154 158.731H597.55C594.535 158.731 591.988 157.64 589.909 155.457L584.92 150.467C582.841 148.388 581.802 145.842 581.802 142.827V52.8605C581.802 48.7026 583.88 46.6237 588.038 46.6237H589.753C593.911 46.6237 595.99 48.7026 595.99 52.8605V138.305C595.99 142.463 598.069 144.542 602.227 144.542H637.154Z" fill="#89CAE8"/>
<path d="M564.599 55.0435C566.678 57.2263 567.717 59.825 567.717 62.8395V104.626C567.717 107.641 566.678 110.24 564.599 112.423L559.61 117.412C557.531 119.491 554.984 120.53 551.969 120.53H526.398C522.24 120.53 520.161 122.609 520.161 126.767V152.65C520.161 156.808 518.083 158.887 513.925 158.887H512.21C508.052 158.887 505.973 156.808 505.973 152.65V53.1724C505.973 49.0145 508.052 46.9355 512.21 46.9355H551.969C554.984 46.9355 557.531 47.975 559.61 50.054L564.599 55.0435ZM553.685 67.3612C553.685 63.2033 551.606 61.1244 547.448 61.1244H526.554C522.396 61.1244 520.317 63.2033 520.317 67.3612V100.105C520.317 104.263 522.396 106.342 526.554 106.342H547.292C551.45 106.342 553.529 104.263 553.529 100.105L553.685 67.3612Z" fill="#89CAE8"/>
<path d="M458.812 150.779C458.812 148.804 459.28 147.297 460.216 146.257C461.151 145.114 462.503 144.542 464.27 144.542C466.037 144.542 467.388 144.023 468.324 142.983C469.259 141.84 469.727 140.28 469.727 138.305V67.0493C469.727 65.0743 469.259 63.5671 468.324 62.5276C467.388 61.3842 466.037 60.8125 464.27 60.8125C462.503 60.8125 461.151 60.2928 460.216 59.2533C459.28 58.1099 458.812 56.5506 458.812 54.5756V52.8605C458.812 48.7026 460.891 46.6237 465.049 46.6237H488.749C492.907 46.6237 494.986 48.7026 494.986 52.8605V54.5756C494.986 58.7335 493.167 60.8125 489.529 60.8125C487.762 60.8125 486.359 61.3842 485.319 62.5276C484.384 63.5671 483.916 65.0743 483.916 67.0493V138.305C483.916 140.28 484.384 141.84 485.319 142.983C486.359 144.023 487.762 144.542 489.529 144.542C491.296 144.542 492.647 145.114 493.583 146.257C494.518 147.297 494.986 148.804 494.986 150.779V152.494C494.986 156.652 492.907 158.731 488.749 158.731H465.049C460.891 158.731 458.812 156.652 458.812 152.494V150.779Z" fill="#89CAE8"/>
<path d="M389.785 46.6237C393.528 46.6237 395.814 48.4427 396.646 52.0809L417.072 139.085C417.903 142.723 418.631 144.542 419.255 144.542C419.878 144.542 420.606 142.723 421.438 139.085L441.395 52.0809C442.227 48.4427 444.514 46.6237 448.256 46.6237H450.127C453.869 46.6237 455.74 48.2868 455.74 51.6131C455.74 52.4447 455.688 53.0684 455.584 53.4842L431.884 153.274C431.053 156.912 428.766 158.731 425.024 158.731H413.641C410.003 158.731 407.716 156.912 406.781 153.274L382.613 53.4842C382.405 52.4447 382.301 51.7691 382.301 51.4572C382.301 50.002 382.821 48.8585 383.86 48.0269C384.9 47.0914 386.303 46.6237 388.07 46.6237H389.785Z" fill="#89CAE8"/>
<path d="M374.491 142.827C374.491 145.842 373.451 148.44 371.373 150.623L366.383 155.613C364.304 157.692 361.757 158.731 358.743 158.731H328.65C325.636 158.731 323.089 157.692 321.01 155.613L315.865 150.467C313.786 148.388 312.746 145.842 312.746 142.827V62.3717C312.746 59.3573 313.786 56.7586 315.865 54.5757L320.854 49.5862C322.933 47.5072 325.48 46.4678 328.494 46.4678H358.743C361.757 46.4678 364.304 47.5592 366.383 49.7421L371.373 54.7316C373.451 56.8106 374.491 59.3573 374.491 62.3717V142.827ZM354.065 144.542C358.223 144.542 360.302 142.463 360.302 138.305V66.8935C360.302 62.7356 358.223 60.6566 354.065 60.6566H333.172C329.014 60.6566 326.935 62.7356 326.935 66.8935V138.305C326.935 142.463 329.014 144.542 333.172 144.542H354.065Z" fill="#89CAE8"/>
<path d="M267.655 143.607C266.512 147.141 264.173 148.908 260.639 148.908H254.558C250.816 148.908 248.425 147.193 247.386 143.763L237.563 112.578C237.147 111.435 236.575 110.551 235.847 109.928C235.224 109.304 234.548 108.992 233.82 108.992C232.885 108.992 232.105 109.408 231.482 110.24C230.858 111.071 230.546 112.215 230.546 113.67V152.338C230.546 156.496 228.467 158.575 224.309 158.575H222.75C218.592 158.575 216.513 156.496 216.513 152.338V53.0164C216.513 48.8585 218.592 46.7795 222.75 46.7795H225.089C228.727 46.7795 231.066 48.4947 232.105 51.9249L253.311 119.751C253.726 121.206 254.298 122.297 255.026 123.025C255.753 123.753 256.481 124.117 257.209 124.117C258.04 124.117 258.82 123.753 259.547 123.025C260.275 122.193 260.847 121.05 261.263 119.595L281.221 52.0809C282.364 48.5467 284.703 46.7795 288.237 46.7795H290.888C295.046 46.7795 297.125 48.8585 297.125 53.0164V152.338C297.125 156.496 295.046 158.575 290.888 158.575H289.328C285.171 158.575 283.092 156.496 283.092 152.338V115.385C283.092 113.93 282.78 112.838 282.156 112.111C281.532 111.279 280.753 110.863 279.817 110.863C278.154 110.863 276.959 112.007 276.231 114.293L267.655 143.607Z" fill="#89CAE8"/>
</svg>
