<svg width="163" height="116" viewBox="0 0 163 116" fill="none" xmlns="http://www.w3.org/2000/svg">
<path d="M159.015 9.39476C161.149 11.6357 162.216 14.3035 162.216 17.3982V60.2964C162.216 63.391 161.149 66.0588 159.015 68.2998L153.893 73.4219C151.759 75.5562 149.144 76.6233 146.05 76.6233H119.798C115.53 76.6233 113.396 78.7575 113.396 83.026V109.597C113.396 113.866 111.262 116 106.993 116H105.232C100.964 116 98.8296 113.866 98.8296 109.597V7.47394C98.8296 3.20546 100.964 1.07123 105.232 1.07123H146.05C149.144 1.07123 151.759 2.13835 153.893 4.27258L159.015 9.39476ZM147.81 22.0401C147.81 17.7716 145.676 15.6374 141.408 15.6374H119.959C115.69 15.6374 113.556 17.7716 113.556 22.0401V55.6544C113.556 59.9229 115.69 62.0571 119.959 62.0571H141.248C145.516 62.0571 147.65 59.9229 147.65 55.6544L147.81 22.0401Z" fill="#C3C3EB"/>
<path d="M52.5404 100.313C51.3665 103.942 48.9655 105.756 45.3373 105.756H39.0947C35.253 105.756 32.7987 103.995 31.7315 100.474L21.6473 68.4599C21.2204 67.2861 20.6335 66.379 19.8865 65.7388C19.2462 65.0985 18.5526 64.7784 17.8056 64.7784C16.8452 64.7784 16.0449 65.2052 15.4046 66.0589C14.7643 66.9126 14.4442 68.0864 14.4442 69.5804V109.277C14.4442 113.546 12.31 115.68 8.04148 115.68H6.4408C2.17232 115.68 0.0380859 113.546 0.0380859 109.277V7.31397C0.0380859 3.04549 2.17232 0.911255 6.4408 0.911255H8.84182C12.5767 0.911255 14.9778 2.672 16.0449 6.19349L37.8141 75.823C38.241 77.317 38.8279 78.4375 39.5749 79.1845C40.3218 79.9314 41.0688 80.3049 41.8158 80.3049C42.6695 80.3049 43.4699 79.9314 44.2168 79.1845C44.9638 78.3308 45.5507 77.1569 45.9776 75.663L66.4663 6.35357C67.6401 2.72536 70.0411 0.911255 73.6693 0.911255H76.3905C80.659 0.911255 82.7932 3.04549 82.7932 7.31397V109.277C82.7932 113.546 80.659 115.68 76.3905 115.68H74.7898C70.5213 115.68 68.3871 113.546 68.3871 109.277V71.3411C68.3871 69.8472 68.067 68.7267 67.4267 67.9797C66.7864 67.126 65.9861 66.6992 65.0257 66.6992C63.3183 66.6992 62.0911 67.873 61.3441 70.2207L52.5404 100.313Z" fill="#89CAE8"/>
</svg>
