<svg width="20" height="19" viewBox="0 0 20 19" fill="none" xmlns="http://www.w3.org/2000/svg">
<path d="M17.99 5.00194C16.7885 2.92097 14.8486 1.43235 12.5275 0.810441C10.2065 0.188457 7.78219 0.50764 5.70111 1.70917C3.62008 2.91067 2.13153 4.85059 1.50961 7.17168C0.887699 9.49273 1.20688 11.9171 2.40835 13.9981C3.60978 16.079 5.54977 17.5677 7.87082 18.1896C8.64587 18.3973 9.43235 18.5 10.2138 18.5C11.7726 18.5 13.3111 18.0912 14.6973 17.2909C16.7782 16.0894 18.2669 14.1495 18.8888 11.8284C19.5107 9.50728 19.1915 7.08298 17.99 5.00194ZM17.9838 11.5859C17.4266 13.6653 16.0931 15.4032 14.2287 16.4796C12.3645 17.556 10.1926 17.8418 8.11325 17.2848C6.03387 16.7276 4.29595 15.3941 3.21958 13.5297C2.14323 11.6655 1.85731 9.49354 2.4145 7.41415C2.97169 5.3348 4.30524 3.59692 6.16954 2.52051C7.41143 1.8035 8.78952 1.43728 10.1861 1.43728C10.8861 1.43728 11.5909 1.52932 12.285 1.71533C14.3643 2.27248 16.1023 3.60603 17.1786 5.47036C18.255 7.33466 18.541 9.50655 17.9838 11.5859Z" fill="white" stroke="white" stroke-width="0.5"/>
<path d="M14.8028 8.59444L8.63308 5.03232C8.30567 4.84328 7.91477 4.84336 7.58735 5.03228C7.25994 5.22128 7.06445 5.55987 7.06445 5.93791V13.0622C7.06445 13.4402 7.2599 13.7787 7.58735 13.9678C7.75104 14.0623 7.93055 14.1095 8.11014 14.1095C8.28977 14.1095 8.46935 14.0622 8.63304 13.9677L14.8028 10.4057C15.1302 10.2166 15.3256 9.87803 15.3256 9.49999C15.3256 9.12199 15.1302 8.78344 14.8028 8.59444ZM14.3031 9.54027L8.13332 13.1024C8.12578 13.1067 8.11007 13.1158 8.08697 13.1024C8.06379 13.089 8.06379 13.0709 8.06379 13.0622V5.93794C8.06379 5.92924 8.06379 5.91117 8.08697 5.89778C8.09604 5.89253 8.10395 5.89073 8.1107 5.89073C8.1212 5.89073 8.12878 5.89512 8.13339 5.89778L14.3031 9.45991C14.3107 9.46426 14.3263 9.47329 14.3263 9.50007C14.3263 9.52684 14.3106 9.53592 14.3031 9.54027Z" fill="white" stroke="white" stroke-width="0.5"/>
<path d="M15.6678 5.73445C14.4794 4.19927 12.693 3.16787 10.7666 2.90466C10.4935 2.86727 10.2413 3.05864 10.2039 3.33212C10.1666 3.60554 10.3579 3.85746 10.6313 3.89485C12.3005 4.12289 13.8482 5.01644 14.8775 6.34619C14.976 6.47339 15.1237 6.53999 15.273 6.53999C15.3798 6.53999 15.4875 6.5059 15.5785 6.4354C15.7967 6.2665 15.8367 5.95266 15.6678 5.73445Z" fill="white" stroke="white" stroke-width="0.5"/>
</svg>
