<svg width="40" height="40" viewBox="0 0 40 40" fill="none" xmlns="http://www.w3.org/2000/svg">
<mask id="mask0_1146_494" style="mask-type:luminance" maskUnits="userSpaceOnUse" x="1" y="1" width="38" height="38">
<path d="M20 36.6668C29.205 36.6668 36.6666 29.2052 36.6666 20.0002C36.6666 10.7952 29.205 3.3335 20 3.3335C10.795 3.3335 3.33331 10.7952 3.33331 20.0002C3.33331 29.2052 10.795 36.6668 20 36.6668Z" fill="white" stroke="white" stroke-width="3.33333" stroke-linejoin="round"/>
</mask>
<g mask="url(#mask0_1146_494)">
<path d="M0 0H40V40H0V0Z" fill="#B70A33"/>
<path d="M17.1666 13.361C16.8572 13.1824 16.476 13.1824 16.1666 13.361C15.8572 13.5397 15.6666 13.8698 15.6666 14.2271V25.7737C15.6666 26.131 15.8572 26.4611 16.1666 26.6397C16.476 26.8184 16.8572 26.8184 17.1666 26.6397L27.1666 20.8664C27.476 20.6878 27.6666 20.3577 27.6666 20.0004C27.6666 19.6431 27.476 19.313 27.1666 19.1344L17.1666 13.361Z" fill="white"/>
</g>
</svg>
