<svg width="220" height="24" viewBox="0 0 220 24" fill="none" xmlns="http://www.w3.org/2000/svg">
<path d="M211.276 3.41553C214.059 3.41553 216.208 4.12839 217.725 5.55412C219.242 6.97985 220 9.05577 220 11.7819C220 14.508 219.242 16.5839 217.725 18.0096C216.208 19.4354 214.059 20.1482 211.276 20.1482C208.493 20.1482 206.343 19.4432 204.826 18.0332C203.325 16.6074 202.575 14.5237 202.575 11.7819C202.575 9.0401 203.325 6.96418 204.826 5.55412C206.343 4.12839 208.493 3.41553 211.276 3.41553ZM211.276 7.29319C210.166 7.29319 209.321 7.63004 208.743 8.30374C208.164 8.97743 207.875 9.88614 207.875 11.0299V12.5339C207.875 13.6776 208.164 14.5863 208.743 15.26C209.321 15.9337 210.166 16.2706 211.276 16.2706C212.386 16.2706 213.23 15.9337 213.808 15.26C214.403 14.5863 214.7 13.6776 214.7 12.5339V11.0299C214.7 9.88614 214.403 8.97743 213.808 8.30374C213.23 7.63004 212.386 7.29319 211.276 7.29319Z" fill="#D02525"/>
<path d="M192.695 3.41553C195.087 3.41553 196.979 4.01872 198.37 5.2251C199.762 6.41582 200.458 8.12356 200.458 10.3483H195.509C195.509 9.40828 195.259 8.66408 194.759 8.11573C194.274 7.56737 193.578 7.29319 192.671 7.29319C191.624 7.29319 190.85 7.62221 190.35 8.28023C189.865 8.93826 189.623 9.8548 189.623 11.0299V12.5339C189.623 13.6933 189.865 14.6098 190.35 15.2835C190.85 15.9416 191.608 16.2706 192.625 16.2706C193.625 16.2706 194.383 16.0121 194.899 15.495C195.415 14.978 195.673 14.2495 195.673 13.3094H200.458C200.458 15.5185 199.777 17.2106 198.417 18.3857C197.073 19.5607 195.165 20.1482 192.695 20.1482C189.943 20.1482 187.856 19.4432 186.433 18.0332C185.026 16.6231 184.323 14.5393 184.323 11.7819C184.323 9.02443 185.026 6.94068 186.433 5.53062C187.856 4.12056 189.943 3.41553 192.695 3.41553Z" fill="#D02525"/>
<path d="M176.887 19.8659V15.1892H181.861V19.8659H176.887Z" fill="#D02525"/>
<path d="M175.45 19.8664H169.165L166.186 14.8372H166.092L163.114 19.8664H157.298L163.067 11.3121L157.861 3.69775H164.122L166.561 7.83393H166.655L169.118 3.69775H174.91L169.681 11.3356L175.45 19.8664Z" fill="white"/>
<path d="M142.014 3.69775H155.968V7.57542H147.197V9.80802H154.702V13.5212H147.197V15.9888H156.132V19.8664H142.014V3.69775Z" fill="white"/>
<path d="M126.372 3.69775H131.555V15.7303H139.834V19.8664H126.372V3.69775Z" fill="white"/>
<path d="M118.5 3.69775C119.501 3.69775 120.392 3.93276 121.174 4.40278C121.956 4.85714 122.565 5.49166 123.003 6.30637C123.441 7.1054 123.66 8.00627 123.66 9.00898V9.31449C123.66 10.3172 123.441 11.2259 123.003 12.0406C122.565 12.8553 121.956 13.4977 121.174 13.9677C120.392 14.422 119.501 14.6492 118.5 14.6492H114.631V19.8664H109.448V3.69775H118.5ZM114.631 10.8656H116.765C117.312 10.8656 117.719 10.7246 117.984 10.4425C118.266 10.1605 118.406 9.77668 118.406 9.29099V9.10298C118.406 8.60163 118.266 8.21778 117.984 7.95144C117.719 7.66942 117.312 7.52842 116.765 7.52842H114.631V10.8656Z" fill="white"/>
<path d="M100.567 19.8664V3.69775H105.751V19.8664H100.567Z" fill="#D02525"/>
<path d="M86.464 19.8664L80.7417 3.69775H86.2764L89.5128 14.5082H89.6066L92.8664 3.69775H98.1666L92.4677 19.8664H86.464Z" fill="#D02525"/>
<path d="M71.5716 3.41553C74.3545 3.41553 76.5043 4.12839 78.0209 5.55412C79.5375 6.97985 80.2957 9.05577 80.2957 11.7819C80.2957 14.508 79.5375 16.5839 78.0209 18.0096C76.5043 19.4354 74.3545 20.1482 71.5716 20.1482C68.7886 20.1482 66.6388 19.4432 65.1222 18.0332C63.6213 16.6074 62.8708 14.5237 62.8708 11.7819C62.8708 9.0401 63.6213 6.96418 65.1222 5.55412C66.6388 4.12839 68.7886 3.41553 71.5716 3.41553ZM71.5716 7.29319C70.4615 7.29319 69.6172 7.63004 69.0387 8.30374C68.4603 8.97743 68.171 9.88614 68.171 11.0299V12.5339C68.171 13.6776 68.4603 14.5863 69.0387 15.26C69.6172 15.9337 70.4615 16.2706 71.5716 16.2706C72.6816 16.2706 73.5259 15.9337 74.1044 15.26C74.6985 14.5863 74.9956 13.6776 74.9956 12.5339V11.0299C74.9956 9.88614 74.6985 8.97743 74.1044 8.30374C73.5259 7.63004 72.6816 7.29319 71.5716 7.29319Z" fill="#D02525"/>
<path d="M55.2647 19.8664V14.0382C55.2647 13.3175 55.2881 12.5811 55.335 11.8291C55.3976 11.0614 55.4601 10.419 55.5226 9.90202C55.5852 9.385 55.6243 9.05598 55.6399 8.91498H55.5461L52.5677 19.8664H48.5105L45.5086 8.93848H45.4148C45.4304 9.07948 45.4695 9.4085 45.5321 9.92552C45.6102 10.4269 45.6806 11.0614 45.7431 11.8291C45.8057 12.5811 45.8369 13.3175 45.8369 14.0382V19.8664H41.0762V3.69775H48.3932L50.8322 13.0277H50.926L53.3416 3.69775H60.4007V19.8664H55.2647Z" fill="#D02525"/>
<path fill-rule="evenodd" clip-rule="evenodd" d="M27.9208 12.3236C28.2569 12.1322 28.2592 11.6476 27.9249 11.453L16.282 4.67724C15.9481 4.48289 15.5295 4.72433 15.5295 5.11133L15.5295 18.5147C15.5295 18.8995 15.9439 19.1412 16.2779 18.9512L27.9208 12.3236ZM32.5196 13.341C33.6328 12.6969 33.6328 11.0868 32.5196 10.4428L14.8616 0.226671C13.7484 -0.417372 12.3569 0.387685 12.3569 1.67577L12.3569 22.108C12.3569 23.3961 13.7484 24.2012 14.8616 23.5571L32.5196 13.341Z" fill="white"/>
<path d="M20.1627 10.4428C21.2759 11.0868 21.2759 12.6969 20.1627 13.341L2.50467 23.5571C1.39148 24.2012 -1.2923e-05 23.3961 -1.28668e-05 22.108L-1.19755e-05 1.67577C-1.19193e-05 0.387685 1.39148 -0.417372 2.50467 0.226671L20.1627 10.4428Z" fill="#D02525"/>
</svg>
