<svg width="18" height="19" viewBox="0 0 18 19" fill="none" xmlns="http://www.w3.org/2000/svg">
<path d="M14.9194 7.69413C15.4814 6.97348 15.7768 6.16543 15.7768 5.34197C15.7768 2.67211 12.7364 0.5 8.99933 0.5C5.26199 0.5 2.22143 2.67211 2.22143 5.34197C2.22143 6.16543 2.51686 6.97348 3.07908 7.69413C1.86462 8.98959 1.19922 10.6245 1.19922 12.3273C1.19922 14.8247 2.65695 17.1727 5.00326 18.4552C5.05704 18.4846 5.11843 18.5 5.18098 18.5C5.18144 18.5 5.1819 18.5 5.18236 18.5L12.8675 18.473C12.9303 18.4728 12.9922 18.4569 13.0459 18.4268C15.3962 17.1201 16.7992 14.8397 16.7992 12.3271C16.799 10.6241 16.1334 8.98938 14.9194 7.69413ZM12.7674 17.8401L5.27722 17.8663C3.18641 16.6882 1.89162 14.574 1.89162 12.3273C1.89162 10.696 2.56255 9.13271 3.78095 7.92528C3.89704 7.81023 3.90373 7.63482 3.79664 7.5126C3.21918 6.85316 2.91383 6.10273 2.91383 5.34218C2.91383 3.02146 5.64373 1.13348 8.99933 1.13348C12.3547 1.13348 15.0844 3.02146 15.0844 5.34218C15.0844 6.10294 14.7793 6.85358 14.2018 7.5126C14.0947 7.63482 14.1014 7.81023 14.2175 7.92528C15.4354 9.1325 16.1066 10.6958 16.1068 12.3273C16.1068 14.5877 14.8603 16.642 12.7674 17.8401Z" fill="white" stroke="white" stroke-width="0.5"/>
<path d="M12.5179 5.89981C12.5367 5.89981 12.5555 5.89869 12.5743 5.89632C12.6508 5.88661 12.7177 5.8576 12.7608 5.8159C13.0514 5.5333 13.1988 5.23178 13.1988 4.91943C13.1988 3.80586 11.3147 2.89993 8.99912 2.89993C6.68354 2.89993 4.79922 3.80586 4.79883 4.91943C4.79883 5.23166 4.94607 5.5333 5.2363 5.8159C5.27917 5.8576 5.3463 5.88661 5.42273 5.89632C5.49917 5.90616 5.57851 5.8957 5.64292 5.86756C6.63542 5.43446 7.79574 5.20552 8.99854 5.20552C10.2013 5.20552 11.3618 5.43446 12.3542 5.86756C12.4028 5.8886 12.4599 5.89981 12.5179 5.89981ZM5.57851 5.44964C5.44718 5.27797 5.38063 5.1002 5.38063 4.91943C5.38102 4.01177 7.00422 3.27341 8.99892 3.27341C10.9938 3.27341 12.6166 4.01177 12.6166 4.91943C12.6166 5.10032 12.5501 5.27797 12.4186 5.44977C11.3896 5.04492 10.2138 4.83204 8.99834 4.83204C7.78332 4.83192 6.60749 5.04492 5.57851 5.44964Z" fill="white" stroke="white" stroke-width="0.5"/>
<path d="M8.586 7.5C8.3725 7.5 8.19922 7.65244 8.19922 7.84078C8.19922 8.02912 8.3725 8.18156 8.586 8.18156C10.9237 8.18156 12.8257 9.87615 12.8257 11.9592C12.8257 12.1473 12.9989 12.3 13.2124 12.3C13.4259 12.3 13.5992 12.1473 13.5992 11.9592C13.5995 9.50038 11.3505 7.5 8.586 7.5Z" fill="white" stroke="white" stroke-width="0.5"/>
</svg>
